<mxfile host="65bd71144e">
    <diagram id="97lGHWTl0iB1ABytcUwL" name="Page-1">
        <mxGraphModel dx="1271" dy="340" grid="1" gridSize="10" guides="1" tooltips="1" connect="1" arrows="1" fold="1" page="1" pageScale="1" pageWidth="827" pageHeight="1169" math="0" shadow="0">
            <root>
                <mxCell id="0"/>
                <mxCell id="1" parent="0"/>
                <mxCell id="4" value="" style="edgeStyle=none;html=1;" parent="1" source="2" target="3" edge="1">
                    <mxGeometry relative="1" as="geometry"/>
                </mxCell>
                <mxCell id="2" value="inicio&amp;nbsp;" style="ellipse;whiteSpace=wrap;html=1;fillColor=#1ba1e2;fontColor=#ffffff;strokeColor=#006EAF;" parent="1" vertex="1">
                    <mxGeometry x="140" width="120" height="80" as="geometry"/>
                </mxCell>
                <mxCell id="27" style="edgeStyle=none;html=1;entryX=0.5;entryY=0;entryDx=0;entryDy=0;" edge="1" parent="1" source="3">
                    <mxGeometry relative="1" as="geometry">
                        <mxPoint x="356.5" y="200" as="targetPoint"/>
                        <Array as="points">
                            <mxPoint x="357" y="140"/>
                        </Array>
                    </mxGeometry>
                </mxCell>
                <mxCell id="50" style="edgeStyle=none;html=1;fontColor=#FFFFFF;entryX=0.35;entryY=-0.037;entryDx=0;entryDy=0;entryPerimeter=0;" edge="1" parent="1" source="3" target="51">
                    <mxGeometry relative="1" as="geometry">
                        <mxPoint x="-50" y="380" as="targetPoint"/>
                        <Array as="points">
                            <mxPoint x="-50" y="140"/>
                            <mxPoint x="-140" y="140"/>
                        </Array>
                    </mxGeometry>
                </mxCell>
                <mxCell id="3" value="cod&amp;nbsp;&lt;br&gt;" style="shape=parallelogram;perimeter=parallelogramPerimeter;whiteSpace=wrap;html=1;fixedSize=1;fillColor=#d80073;fontColor=#ffffff;strokeColor=#A50040;" parent="1" vertex="1">
                    <mxGeometry x="140" y="110" width="120" height="60" as="geometry"/>
                </mxCell>
                <mxCell id="33" style="edgeStyle=none;html=1;" edge="1" parent="1" source="29">
                    <mxGeometry relative="1" as="geometry">
                        <mxPoint x="372" y="330" as="targetPoint"/>
                    </mxGeometry>
                </mxCell>
                <mxCell id="29" value="nota1,nota2,nota3,&lt;br&gt;nota4,nota5" style="shape=parallelogram;perimeter=parallelogramPerimeter;whiteSpace=wrap;html=1;fixedSize=1;fillColor=#a20025;fontColor=#ffffff;strokeColor=#6F0000;" vertex="1" parent="1">
                    <mxGeometry x="284" y="200" width="176" height="80" as="geometry"/>
                </mxCell>
                <mxCell id="35" style="edgeStyle=none;html=1;" edge="1" parent="1" source="34">
                    <mxGeometry relative="1" as="geometry">
                        <mxPoint x="500" y="440" as="targetPoint"/>
                        <Array as="points">
                            <mxPoint x="500" y="375"/>
                        </Array>
                    </mxGeometry>
                </mxCell>
                <mxCell id="58" style="edgeStyle=none;html=1;exitX=0;exitY=0;exitDx=0;exitDy=0;fontColor=#FFFFFF;entryX=0.425;entryY=-0.012;entryDx=0;entryDy=0;entryPerimeter=0;" edge="1" parent="1" source="34" target="59">
                    <mxGeometry relative="1" as="geometry">
                        <mxPoint x="140" y="820" as="targetPoint"/>
                        <Array as="points">
                            <mxPoint x="140" y="350"/>
                        </Array>
                    </mxGeometry>
                </mxCell>
                <mxCell id="34" value="cod ! =" style="rhombus;whiteSpace=wrap;html=1;fillColor=#6a00ff;fontColor=#ffffff;strokeColor=#3700CC;" vertex="1" parent="1">
                    <mxGeometry x="323" y="330" width="98" height="90" as="geometry"/>
                </mxCell>
                <mxCell id="37" style="edgeStyle=none;html=1;fontColor=#FFFFFF;" edge="1" parent="1" source="36">
                    <mxGeometry relative="1" as="geometry">
                        <mxPoint x="540" y="540" as="targetPoint"/>
                    </mxGeometry>
                </mxCell>
                <mxCell id="36" value="nota_final=&lt;font color=&quot;#ffffff&quot;&gt;(&lt;/font&gt;nota1+nota2+nota3&lt;br&gt;+nota4+nota5)/3" style="rounded=0;whiteSpace=wrap;html=1;fillColor=#00FF80;" vertex="1" parent="1">
                    <mxGeometry x="450" y="440" width="180" height="60" as="geometry"/>
                </mxCell>
                <mxCell id="39" style="edgeStyle=none;html=1;fontColor=#FFFFFF;" edge="1" parent="1" source="38">
                    <mxGeometry relative="1" as="geometry">
                        <mxPoint x="690" y="710" as="targetPoint"/>
                        <Array as="points">
                            <mxPoint x="550" y="710"/>
                        </Array>
                    </mxGeometry>
                </mxCell>
                <mxCell id="38" value="nota_fina&amp;nbsp;" style="rhombus;whiteSpace=wrap;html=1;fontColor=#ffffff;fillColor=#d80073;strokeColor=#A50040;" vertex="1" parent="1">
                    <mxGeometry x="510" y="545" width="80" height="80" as="geometry"/>
                </mxCell>
                <mxCell id="41" style="edgeStyle=none;html=1;fontColor=#FFFFFF;" edge="1" parent="1" source="40">
                    <mxGeometry relative="1" as="geometry">
                        <mxPoint x="390" y="880" as="targetPoint"/>
                        <Array as="points">
                            <mxPoint x="750" y="880"/>
                        </Array>
                    </mxGeometry>
                </mxCell>
                <mxCell id="40" value="reprobados= reprobados +1" style="rounded=0;whiteSpace=wrap;html=1;fontColor=#FFFFFF;fillColor=#FF9933;" vertex="1" parent="1">
                    <mxGeometry x="690" y="690" width="120" height="60" as="geometry"/>
                </mxCell>
                <mxCell id="54" style="edgeStyle=none;html=1;entryX=0.5;entryY=0;entryDx=0;entryDy=0;fontColor=#FFFFFF;" edge="1" parent="1" source="42" target="44">
                    <mxGeometry relative="1" as="geometry"/>
                </mxCell>
                <mxCell id="42" value="cod" style="rhombus;whiteSpace=wrap;html=1;fontColor=#FFFFFF;fillColor=#3333FF;" vertex="1" parent="1">
                    <mxGeometry x="330" y="840" width="80" height="80" as="geometry"/>
                </mxCell>
                <mxCell id="55" style="edgeStyle=none;html=1;fontColor=#FFFFFF;entryX=0.5;entryY=1;entryDx=0;entryDy=0;" edge="1" parent="1" source="44" target="34">
                    <mxGeometry relative="1" as="geometry">
                        <mxPoint x="410" y="590" as="targetPoint"/>
                        <Array as="points">
                            <mxPoint x="250" y="1050"/>
                            <mxPoint x="250" y="610"/>
                            <mxPoint x="250" y="600"/>
                            <mxPoint x="372" y="600"/>
                        </Array>
                    </mxGeometry>
                </mxCell>
                <mxCell id="56" style="edgeStyle=none;html=1;fontColor=#FFFFFF;entryX=0;entryY=0.75;entryDx=0;entryDy=0;" edge="1" parent="1" source="44" target="46">
                    <mxGeometry relative="1" as="geometry">
                        <mxPoint x="372" y="1400" as="targetPoint"/>
                        <Array as="points">
                            <mxPoint x="372" y="1345"/>
                        </Array>
                    </mxGeometry>
                </mxCell>
                <mxCell id="44" value="cod ! =0" style="shape=parallelogram;perimeter=parallelogramPerimeter;whiteSpace=wrap;html=1;fixedSize=1;fontColor=#FFFFFF;fillColor=#33FF99;" vertex="1" parent="1">
                    <mxGeometry x="312" y="1020" width="120" height="60" as="geometry"/>
                </mxCell>
                <mxCell id="57" style="edgeStyle=none;html=1;fontColor=#FFFFFF;entryX=0.684;entryY=0.111;entryDx=0;entryDy=0;entryPerimeter=0;" edge="1" parent="1" source="46" target="34">
                    <mxGeometry relative="1" as="geometry">
                        <mxPoint x="910" y="320" as="targetPoint"/>
                        <Array as="points">
                            <mxPoint x="910" y="340"/>
                        </Array>
                    </mxGeometry>
                </mxCell>
                <mxCell id="46" value="nota1,nota2,nota3,&lt;br&gt;nota4,nota5" style="rounded=0;whiteSpace=wrap;html=1;fontColor=#FFFFFF;fillColor=#FF9933;" vertex="1" parent="1">
                    <mxGeometry x="850" y="1300" width="120" height="60" as="geometry"/>
                </mxCell>
                <mxCell id="62" style="edgeStyle=none;html=1;fontColor=#FFFFFF;entryX=0;entryY=0.5;entryDx=0;entryDy=0;" edge="1" parent="1" source="51" target="61">
                    <mxGeometry relative="1" as="geometry">
                        <mxPoint x="-110" y="1256" as="targetPoint"/>
                        <Array as="points">
                            <mxPoint x="-120" y="1209"/>
                            <mxPoint x="-110" y="1209"/>
                        </Array>
                    </mxGeometry>
                </mxCell>
                <mxCell id="51" value="fin de la entrada&amp;nbsp;" style="shape=document;whiteSpace=wrap;html=1;boundedLbl=1;fontColor=#FFFFFF;fillColor=#FF0080;" vertex="1" parent="1">
                    <mxGeometry x="-180" y="380" width="120" height="80" as="geometry"/>
                </mxCell>
                <mxCell id="60" style="edgeStyle=none;html=1;fontColor=#FFFFFF;" edge="1" parent="1" source="59">
                    <mxGeometry relative="1" as="geometry">
                        <mxPoint x="40" y="1170" as="targetPoint"/>
                        <Array as="points">
                            <mxPoint x="150" y="1120"/>
                            <mxPoint x="40" y="1120"/>
                        </Array>
                    </mxGeometry>
                </mxCell>
                <mxCell id="59" value="reprobados&amp;nbsp;" style="shape=document;whiteSpace=wrap;html=1;boundedLbl=1;fontColor=#FFFFFF;fillColor=#FF9933;" vertex="1" parent="1">
                    <mxGeometry x="90" y="980" width="120" height="80" as="geometry"/>
                </mxCell>
                <mxCell id="61" value="fin" style="ellipse;whiteSpace=wrap;html=1;fontColor=#FFFFFF;fillColor=#00FF80;" vertex="1" parent="1">
                    <mxGeometry x="-30" y="1169" width="120" height="80" as="geometry"/>
                </mxCell>
                <mxCell id="63" value="Text" style="text;html=1;align=center;verticalAlign=middle;resizable=0;points=[];autosize=1;strokeColor=none;fillColor=none;fontColor=#FFFFFF;" vertex="1" parent="1">
                    <mxGeometry x="720" y="910" width="40" height="20" as="geometry"/>
                </mxCell>
            </root>
        </mxGraphModel>
    </diagram>
</mxfile>